<?xml version="1.0" standalone="no"?><!DOCTYPE svg PUBLIC "-//W3C//DTD SVG 1.1//EN" "http://www.w3.org/Graphics/SVG/1.1/DTD/svg11.dtd"><svg t="1680623460821" class="icon" viewBox="0 0 1024 1024" version="1.1" xmlns="http://www.w3.org/2000/svg" p-id="6948" xmlns:xlink="http://www.w3.org/1999/xlink" width="200" height="200"><path d="M833.856 829.632 214.464 829.632c-11.392 0-20.672-9.216-20.672-20.672L193.792 189.568c0-11.392 9.216-20.672 20.672-20.672L606.72 168.896c11.392 0 20.672 9.216 20.672 20.672 0 11.392-9.216 20.672-20.672 20.672L235.072 210.24l0 578.112 578.112 0L813.184 416.704c0-11.392 9.216-20.672 20.672-20.672s20.672 9.216 20.672 20.672l0 392.32C854.464 820.416 845.248 829.632 833.856 829.632zM441.792 602.816c-5.312 0-10.56-1.984-14.592-6.016-8.064-8.064-8.064-21.12 0-29.184l433.6-433.6c8.064-8.064 21.12-8.064 29.184 0s8.064 21.12 0 29.184L456.384 596.8C452.352 600.768 447.04 602.816 441.792 602.816z" fill="#8E8E93" p-id="6949"></path></svg>