<?xml version="1.0" standalone="no"?><!DOCTYPE svg PUBLIC "-//W3C//DTD SVG 1.1//EN" "http://www.w3.org/Graphics/SVG/1.1/DTD/svg11.dtd"><svg t="1680615331509" class="icon" viewBox="0 0 1024 1024" version="1.1" xmlns="http://www.w3.org/2000/svg" p-id="7891" xmlns:xlink="http://www.w3.org/1999/xlink" width="200" height="200"><path d="M853.3 68.3h-273c-27.2 0-50.7 7.6-68.3 20.9-17.6-13.3-41.1-20.9-68.3-20.9h-273C73.4 68.3 0 136.7 0 227.6v477.9c0 97 79.8 182 170.7 182h307.2v34.1c0 18.8 15.3 34.1 34.1 34.1s34.1-15.3 34.1-34.1v-34.1h307.2c90.9 0 170.7-85.1 170.7-182V227.6c0-90.9-73.4-159.3-170.7-159.3zM170.7 819.2c-53.6 0-102.4-54.2-102.4-113.8V227.6c0-53.6 42.1-91 102.4-91h273.1c15.6 0 34.1 3.9 34.1 22.8v659.8H170.7z m785-113.8c0 59.6-48.8 113.8-102.4 113.8H546.1V159.3c0-18.8 18.6-22.8 34.1-22.8h273.1c60.3 0 102.4 37.4 102.4 91v477.9z" fill="#27D0D8" p-id="7892"></path></svg>